{"title":"Fake.Identity.2010.SWESUB.DVDRip.XviD.AC3.(5.1).-Zen_Bud","uid":5682150,"size":1470645976,"categoryP":"video","categoryS":"movies","magnet":"?xt=urn:btih:2d6fed36c085e4da4c12af398e95ae2b0d078eda&amp;dn=Fake.Identity.2010.SWESUB.DVDRip.XviD.AC3.%285.1%29.-Zen_Bud&amp;tr=udp%3A%2F%2Ftracker.openbittorrent.com%3A80&amp;tr=udp%3A%2F%2Fopen.demonii.com%3A1337&amp;tr=udp%3A%2F%2Ftracker.coppersurfer.tk%3A6969&amp;tr=udp%3A%2F%2Fexodus.desync.com%3A6969","seeders":0,"leechers":0,"uploader":"Zen_Bud","files":1,"time":1278858787,"description":"General\nComplete name                    : Fake.Identity.2010.avi\nFormat                           : AVI\nFile size                        : 1.37 GiB\nDuration                         : 1h 32mn\nOverall bit rate                 : 2 111 Kbps\n\nVideo\n\nFormat                           : MPEG-4 Visual\nCodec ID/Hint                    : XviD\nDuration                         : 1h 32mn\nBit rate                         : 1 652 Kbps\nWidth                            : 718 pixels\nHeight                           : 480 pixels\nDisplay aspect ratio             : 16:9\nStream size                      : 1.07 GiB (78%)\nWriting library                  : XviD 1.1.2 (UTC 2006-11-01)\n\nAudio\n\nFormat                           : AC-3\nDuration                         : 1h 32mn\nBit rate                         : 448 Kbps\nChannel(s)                       : 6 channels\nChannel positions                : Front: L C R, Side: L R, LFE\nSampling rate                    : 48.0 KHz\nStream size                      : 298 MiB (21%)\n\n\n","torrent":{"xt":"urn:btih:2d6fed36c085e4da4c12af398e95ae2b0d078eda","amp;dn":"Fake.Identity.2010.SWESUB.DVDRip.XviD.AC3.%285.1%29.-Zen_Bud","amp;tr":["udp%3A%2F%2Ftracker.openbittorrent.com%3A80","udp%3A%2F%2Fopen.demonii.com%3A1337","udp%3A%2F%2Ftracker.coppersurfer.tk%3A6969","udp%3A%2F%2Fexodus.desync.com%3A6969"],"infoHash":"2d6fed36c085e4da4c12af398e95ae2b0d078eda","infoHashBuffer":{"type":"Buffer","data":[45,111,237,54,192,133,228,218,76,18,175,57,142,149,174,43,13,7,142,218]},"announce":[],"urlList":[]}}